<?xml version="1.0" encoding="utf-8"?>
<svg version="1.1" id="_x32_" xmlns="http://www.w3.org/2000/svg" xmlns:xlink="http://www.w3.org/1999/xlink" x="0px" y="0px"
	 viewBox="0 0 800 800" style="enable-background:new 0 0 800 800;" xml:space="preserve">
<style type="text/css">
	.st0{fill:#FFFFFF;}
</style>
<g>
	<path class="st0" d="M400,0C179.1,0,0,179.1,0,400c0,220.9,179.1,400,400,400c220.9,0,400-179.1,400-400C800,179.1,620.9,0,400,0z
		 M152.5,152.5c36.5-36.5,80.9-64.8,130.4-82.4c-23.7,28.7-43.5,65.5-59,108h-94.6C136.6,169.2,144.4,160.7,152.5,152.5z
		 M102.5,215.6h109.4c-14.1,49.9-22.5,106-24,165.6H50.5C53.7,320.6,72.3,264.2,102.5,215.6z M102.5,584.4
		c-30.2-48.6-48.8-105-52-165.6H188c1.5,59.6,9.7,115.8,23.8,165.6L102.5,584.4L102.5,584.4z M152.5,647.5
		c-8.1-8.1-15.9-16.7-23.2-25.6H224c6.7,18.4,14.1,35.8,22.4,51.9c10.9,21,23.1,39.8,36.5,56.1C233.3,712.3,189,683.9,152.5,647.5z
		 M381.2,749.5c-5.9-0.3-11.7-0.7-17.4-1.3c-9.2-4.1-18.3-9.8-27.3-17.1c-27.6-22.4-53.1-60.4-72.5-109.1h117.3L381.2,749.5
		L381.2,749.5z M381.2,584.4H250.9c-14.8-48.7-23.9-105.2-25.5-165.6h155.9L381.2,584.4L381.2,584.4z M381.2,381.2H225.5
		c1.6-60.5,10.7-116.9,25.6-165.6h130.2L381.2,381.2L381.2,381.2z M381.2,178.1H264.1c4.9-12.2,9.9-23.9,15.5-34.7
		c16.6-32.2,36.2-57.6,56.8-74.5c9-7.4,18.1-13,27.3-17.1c5.8-0.6,11.6-1,17.4-1.3L381.2,178.1L381.2,178.1z M697.5,215.6
		c30.2,48.6,48.8,105,52,165.6H612c-1.5-59.6-9.7-115.8-23.8-165.6L697.5,215.6L697.5,215.6z M647.5,152.5
		c8.1,8.1,15.9,16.7,23.2,25.6H576c-6.7-18.4-14.1-35.9-22.4-51.9c-10.9-21-23.1-39.8-36.5-56.1C566.7,87.7,611,116.1,647.5,152.5z
		 M418.7,50.5c5.9,0.3,11.7,0.8,17.4,1.3c9.2,4.1,18.3,9.8,27.4,17.1c27.6,22.4,53.1,60.4,72.5,109.1H418.7V50.5z M418.7,215.6
		h130.4c14.8,48.7,23.9,105.2,25.5,165.6H418.7V215.6z M418.7,418.8h155.8c-1.6,60.5-10.7,116.9-25.6,165.6H418.7V418.8z M463.5,731
		c-9,7.4-18.1,13-27.4,17.1c-5.8,0.6-11.6,1-17.4,1.3V621.9h117.1c-4.9,12.2-9.9,23.9-15.5,34.7C503.7,688.8,484.1,714.2,463.5,731z
		 M647.5,647.5c-36.5,36.5-80.9,64.8-130.4,82.4c23.7-28.7,43.5-65.5,59-108h94.6C663.4,630.8,655.6,639.3,647.5,647.5z
		 M697.5,584.4H588.1c14.1-49.9,22.5-106,24-165.6h137.4C746.3,479.4,727.7,535.8,697.5,584.4z"/>
</g>
</svg>
